<svg width="34" height="34" viewBox="0 0 34 34" fill="none" xmlns="http://www.w3.org/2000/svg">
<path d="M32 24.38V28.88C32.0017 29.2977 31.9161 29.7112 31.7488 30.094C31.5814 30.4768 31.336 30.8204 31.0281 31.1028C30.7203 31.3852 30.3569 31.6002 29.9611 31.7341C29.5654 31.8679 29.1461 31.9176 28.73 31.88C24.1143 31.3785 19.6805 29.8012 15.785 27.275C12.1608 24.972 9.08803 21.8993 6.78502 18.275C4.24999 14.3618 2.67239 9.90648 2.18002 5.26999C2.14254 4.85519 2.19183 4.43713 2.32477 4.04243C2.45771 3.64773 2.67138 3.28503 2.95217 2.97742C3.23296 2.66982 3.57473 2.42406 3.95571 2.25578C4.33669 2.08749 4.74853 2.00039 5.16502 1.99999H9.66502C10.393 1.99283 11.0987 2.25061 11.6507 2.72529C12.2026 3.19997 12.5631 3.85916 12.665 4.57999C12.855 6.02009 13.2072 7.43408 13.715 8.79499C13.9168 9.33188 13.9605 9.91536 13.8409 10.4763C13.7212 11.0373 13.4433 11.5522 13.04 11.96L11.135 13.865C13.2704 17.6203 16.3797 20.7297 20.135 22.865L22.04 20.96C22.4479 20.5567 22.9628 20.2788 23.5237 20.1591C24.0846 20.0395 24.6681 20.0832 25.205 20.285C26.5659 20.7928 27.9799 21.1451 29.42 21.335C30.1487 21.4378 30.8141 21.8048 31.2898 22.3662C31.7655 22.9277 32.0183 23.6444 32 24.38Z" stroke="#CCCCCC" stroke-width="3" stroke-linecap="round" stroke-linejoin="round"/>
</svg>
